<mxfile host="app.diagrams.net" modified="2023-05-04T13:14:09.683Z" agent="Mozilla/5.0 (Macintosh; Intel Mac OS X 10_15_7) AppleWebKit/537.36 (KHTML, like Gecko) Chrome/112.0.0.0 Safari/537.36" version="21.2.8" etag="i8pM5eujV5eGdYF65Lu0" type="github">
  <diagram name="第 1 页" id="aeGtgRb7koxT0YEUIMIG">
    <mxGraphModel>
      <root>
        <mxCell id="0" />
        <mxCell id="1" parent="0" />
      </root>
    </mxGraphModel>
  </diagram>
</mxfile>
